<mxfile host="Electron" agent="Mozilla/5.0 (Windows NT 10.0; Win64; x64) AppleWebKit/537.36 (KHTML, like Gecko) draw.io/25.0.2 Chrome/128.0.6613.186 Electron/32.2.5 Safari/537.36" version="25.0.2" pages="2">
  <diagram name="Страница — 1" id="VHyagOCKFjfoiqxcYrmL">
    <mxGraphModel dx="794" dy="519" grid="1" gridSize="10" guides="1" tooltips="1" connect="1" arrows="0" fold="1" page="1" pageScale="1" pageWidth="827" pageHeight="1169" math="0" shadow="0">
      <root>
        <mxCell id="0" />
        <mxCell id="1" parent="0" />
        <mxCell id="IE_E9ldbbOk0oWEW7eUA-4" style="rounded=0;orthogonalLoop=1;jettySize=auto;html=1;" edge="1" parent="1" source="IE_E9ldbbOk0oWEW7eUA-2" target="IE_E9ldbbOk0oWEW7eUA-3">
          <mxGeometry relative="1" as="geometry" />
        </mxCell>
        <mxCell id="IE_E9ldbbOk0oWEW7eUA-6" value="T" style="edgeLabel;html=1;align=center;verticalAlign=middle;resizable=0;points=[];" vertex="1" connectable="0" parent="IE_E9ldbbOk0oWEW7eUA-4">
          <mxGeometry x="-0.0518" y="4" relative="1" as="geometry">
            <mxPoint as="offset" />
          </mxGeometry>
        </mxCell>
        <mxCell id="IE_E9ldbbOk0oWEW7eUA-8" style="rounded=0;orthogonalLoop=1;jettySize=auto;html=1;" edge="1" parent="1" source="IE_E9ldbbOk0oWEW7eUA-2" target="IE_E9ldbbOk0oWEW7eUA-7">
          <mxGeometry relative="1" as="geometry" />
        </mxCell>
        <mxCell id="IE_E9ldbbOk0oWEW7eUA-9" value="F" style="edgeLabel;html=1;align=center;verticalAlign=middle;resizable=0;points=[];fontFamily=Helvetica;fontSize=11;fontColor=default;labelBackgroundColor=default;" vertex="1" connectable="0" parent="IE_E9ldbbOk0oWEW7eUA-8">
          <mxGeometry x="0.0094" y="3" relative="1" as="geometry">
            <mxPoint as="offset" />
          </mxGeometry>
        </mxCell>
        <mxCell id="IE_E9ldbbOk0oWEW7eUA-2" value="if not s.isdigit():" style="rounded=0;whiteSpace=wrap;html=1;" vertex="1" parent="1">
          <mxGeometry x="280" y="140" width="100" height="30" as="geometry" />
        </mxCell>
        <mxCell id="IE_E9ldbbOk0oWEW7eUA-3" value="return &quot;NO&quot;" style="rounded=0;whiteSpace=wrap;html=1;" vertex="1" parent="1">
          <mxGeometry x="380" y="220" width="86" height="20" as="geometry" />
        </mxCell>
        <mxCell id="IE_E9ldbbOk0oWEW7eUA-12" style="edgeStyle=none;shape=connector;rounded=0;orthogonalLoop=1;jettySize=auto;html=1;exitX=0.75;exitY=1;exitDx=0;exitDy=0;strokeColor=default;align=center;verticalAlign=middle;fontFamily=Helvetica;fontSize=11;fontColor=default;labelBackgroundColor=default;endArrow=classic;" edge="1" parent="1" source="IE_E9ldbbOk0oWEW7eUA-7" target="IE_E9ldbbOk0oWEW7eUA-11">
          <mxGeometry relative="1" as="geometry" />
        </mxCell>
        <mxCell id="IE_E9ldbbOk0oWEW7eUA-13" value="T" style="edgeLabel;html=1;align=center;verticalAlign=middle;resizable=0;points=[];fontFamily=Helvetica;fontSize=11;fontColor=default;labelBackgroundColor=default;" vertex="1" connectable="0" parent="IE_E9ldbbOk0oWEW7eUA-12">
          <mxGeometry x="-0.0104" y="-1" relative="1" as="geometry">
            <mxPoint as="offset" />
          </mxGeometry>
        </mxCell>
        <mxCell id="IE_E9ldbbOk0oWEW7eUA-15" style="edgeStyle=none;shape=connector;rounded=0;orthogonalLoop=1;jettySize=auto;html=1;exitX=0.25;exitY=1;exitDx=0;exitDy=0;strokeColor=default;align=center;verticalAlign=middle;fontFamily=Helvetica;fontSize=11;fontColor=default;labelBackgroundColor=default;endArrow=classic;" edge="1" parent="1" source="IE_E9ldbbOk0oWEW7eUA-7" target="IE_E9ldbbOk0oWEW7eUA-14">
          <mxGeometry relative="1" as="geometry" />
        </mxCell>
        <mxCell id="IE_E9ldbbOk0oWEW7eUA-16" value="F" style="edgeLabel;html=1;align=center;verticalAlign=middle;resizable=0;points=[];fontFamily=Helvetica;fontSize=11;fontColor=default;labelBackgroundColor=default;" vertex="1" connectable="0" parent="IE_E9ldbbOk0oWEW7eUA-15">
          <mxGeometry x="-0.3075" y="1" relative="1" as="geometry">
            <mxPoint as="offset" />
          </mxGeometry>
        </mxCell>
        <mxCell id="IE_E9ldbbOk0oWEW7eUA-7" value="&lt;div&gt;n = len(s)&lt;/div&gt;&lt;div&gt;for l in range(1, n // 2 + 1):&lt;/div&gt;" style="rounded=0;whiteSpace=wrap;html=1;align=left;" vertex="1" parent="1">
          <mxGeometry x="200" y="210" width="150" height="40" as="geometry" />
        </mxCell>
        <mxCell id="IE_E9ldbbOk0oWEW7eUA-18" style="edgeStyle=none;shape=connector;rounded=0;orthogonalLoop=1;jettySize=auto;html=1;exitX=1;exitY=0.25;exitDx=0;exitDy=0;strokeColor=default;align=center;verticalAlign=middle;fontFamily=Helvetica;fontSize=11;fontColor=default;labelBackgroundColor=default;endArrow=classic;" edge="1" parent="1" source="IE_E9ldbbOk0oWEW7eUA-11" target="IE_E9ldbbOk0oWEW7eUA-17">
          <mxGeometry relative="1" as="geometry" />
        </mxCell>
        <mxCell id="IE_E9ldbbOk0oWEW7eUA-20" value="T" style="edgeLabel;html=1;align=center;verticalAlign=middle;resizable=0;points=[];fontFamily=Helvetica;fontSize=11;fontColor=default;labelBackgroundColor=default;" vertex="1" connectable="0" parent="IE_E9ldbbOk0oWEW7eUA-18">
          <mxGeometry x="0.0542" y="-2" relative="1" as="geometry">
            <mxPoint as="offset" />
          </mxGeometry>
        </mxCell>
        <mxCell id="IE_E9ldbbOk0oWEW7eUA-22" style="edgeStyle=none;shape=connector;rounded=0;orthogonalLoop=1;jettySize=auto;html=1;exitX=0.5;exitY=1;exitDx=0;exitDy=0;strokeColor=default;align=center;verticalAlign=middle;fontFamily=Helvetica;fontSize=11;fontColor=default;labelBackgroundColor=default;endArrow=classic;" edge="1" parent="1" source="IE_E9ldbbOk0oWEW7eUA-11" target="IE_E9ldbbOk0oWEW7eUA-21">
          <mxGeometry relative="1" as="geometry" />
        </mxCell>
        <mxCell id="IE_E9ldbbOk0oWEW7eUA-23" value="F" style="edgeLabel;html=1;align=center;verticalAlign=middle;resizable=0;points=[];fontFamily=Helvetica;fontSize=11;fontColor=default;labelBackgroundColor=default;" vertex="1" connectable="0" parent="IE_E9ldbbOk0oWEW7eUA-22">
          <mxGeometry x="-0.2062" y="2" relative="1" as="geometry">
            <mxPoint as="offset" />
          </mxGeometry>
        </mxCell>
        <mxCell id="IE_E9ldbbOk0oWEW7eUA-11" value="&lt;div&gt;fir_num = int(s[:l])&amp;nbsp;&amp;nbsp;&lt;/div&gt;&lt;div&gt;cur_num = fir_num&lt;/div&gt;&lt;div&gt;ans = str(fir_num)&lt;/div&gt;&lt;div&gt;while len(ans) &amp;lt; n:&lt;/div&gt;" style="rounded=0;whiteSpace=wrap;html=1;fontFamily=Helvetica;fontSize=11;fontColor=default;labelBackgroundColor=default;align=left;" vertex="1" parent="1">
          <mxGeometry x="320" y="310" width="110" height="60" as="geometry" />
        </mxCell>
        <mxCell id="IE_E9ldbbOk0oWEW7eUA-14" value="return &quot;NO&quot;" style="rounded=0;whiteSpace=wrap;html=1;" vertex="1" parent="1">
          <mxGeometry x="160" y="330" width="86" height="20" as="geometry" />
        </mxCell>
        <mxCell id="IE_E9ldbbOk0oWEW7eUA-19" style="edgeStyle=none;shape=connector;rounded=0;orthogonalLoop=1;jettySize=auto;html=1;exitX=0;exitY=1;exitDx=0;exitDy=0;strokeColor=default;align=center;verticalAlign=middle;fontFamily=Helvetica;fontSize=11;fontColor=default;labelBackgroundColor=default;endArrow=classic;" edge="1" parent="1" source="IE_E9ldbbOk0oWEW7eUA-17" target="IE_E9ldbbOk0oWEW7eUA-11">
          <mxGeometry relative="1" as="geometry" />
        </mxCell>
        <mxCell id="IE_E9ldbbOk0oWEW7eUA-17" value="&lt;div&gt;cur_num += 1&lt;/div&gt;&lt;div&gt;ans += str(cur_num)&lt;/div&gt;" style="rounded=0;whiteSpace=wrap;html=1;fontFamily=Helvetica;fontSize=11;fontColor=default;labelBackgroundColor=default;align=left;" vertex="1" parent="1">
          <mxGeometry x="466" y="320" width="110" height="40" as="geometry" />
        </mxCell>
        <mxCell id="IE_E9ldbbOk0oWEW7eUA-25" style="edgeStyle=none;shape=connector;rounded=0;orthogonalLoop=1;jettySize=auto;html=1;exitX=0.5;exitY=1;exitDx=0;exitDy=0;strokeColor=default;align=center;verticalAlign=middle;fontFamily=Helvetica;fontSize=11;fontColor=default;labelBackgroundColor=default;endArrow=classic;" edge="1" parent="1" source="IE_E9ldbbOk0oWEW7eUA-21" target="IE_E9ldbbOk0oWEW7eUA-24">
          <mxGeometry relative="1" as="geometry" />
        </mxCell>
        <mxCell id="IE_E9ldbbOk0oWEW7eUA-26" value="T" style="edgeLabel;html=1;align=center;verticalAlign=middle;resizable=0;points=[];fontFamily=Helvetica;fontSize=11;fontColor=default;labelBackgroundColor=default;" vertex="1" connectable="0" parent="IE_E9ldbbOk0oWEW7eUA-25">
          <mxGeometry x="-0.1158" y="3" relative="1" as="geometry">
            <mxPoint as="offset" />
          </mxGeometry>
        </mxCell>
        <mxCell id="IE_E9ldbbOk0oWEW7eUA-27" style="edgeStyle=none;shape=connector;rounded=0;orthogonalLoop=1;jettySize=auto;html=1;exitX=0;exitY=0.25;exitDx=0;exitDy=0;strokeColor=default;align=center;verticalAlign=middle;fontFamily=Helvetica;fontSize=11;fontColor=default;labelBackgroundColor=default;endArrow=classic;" edge="1" parent="1" source="IE_E9ldbbOk0oWEW7eUA-21" target="IE_E9ldbbOk0oWEW7eUA-7">
          <mxGeometry relative="1" as="geometry" />
        </mxCell>
        <mxCell id="IE_E9ldbbOk0oWEW7eUA-21" value="if ans == s:" style="rounded=0;whiteSpace=wrap;html=1;fontFamily=Helvetica;fontSize=11;fontColor=default;labelBackgroundColor=default;" vertex="1" parent="1">
          <mxGeometry x="329" y="410" width="85" height="20" as="geometry" />
        </mxCell>
        <mxCell id="IE_E9ldbbOk0oWEW7eUA-24" value="return f&quot;YES {fir_num}&quot;" style="rounded=0;whiteSpace=wrap;html=1;fontFamily=Helvetica;fontSize=11;fontColor=default;labelBackgroundColor=default;" vertex="1" parent="1">
          <mxGeometry x="315" y="460" width="120" height="20" as="geometry" />
        </mxCell>
      </root>
    </mxGraphModel>
  </diagram>
  <diagram id="UyK4a96whqG7gki6dKdi" name="Страница — 2">
    <mxGraphModel dx="794" dy="519" grid="1" gridSize="10" guides="1" tooltips="1" connect="1" arrows="1" fold="1" page="1" pageScale="1" pageWidth="827" pageHeight="1169" math="0" shadow="0">
      <root>
        <mxCell id="0" />
        <mxCell id="1" parent="0" />
        <mxCell id="r2Pi9WGiZngzPLensq6e-9" style="edgeStyle=none;shape=connector;rounded=0;orthogonalLoop=1;jettySize=auto;html=1;strokeColor=default;align=center;verticalAlign=middle;fontFamily=Helvetica;fontSize=11;fontColor=default;labelBackgroundColor=default;endArrow=none;endFill=0;" edge="1" parent="1" source="r2Pi9WGiZngzPLensq6e-1" target="r2Pi9WGiZngzPLensq6e-6">
          <mxGeometry relative="1" as="geometry" />
        </mxCell>
        <mxCell id="r2Pi9WGiZngzPLensq6e-1" value="2" style="ellipse;whiteSpace=wrap;html=1;" vertex="1" parent="1">
          <mxGeometry x="90" y="190" width="50" height="50" as="geometry" />
        </mxCell>
        <mxCell id="r2Pi9WGiZngzPLensq6e-10" style="edgeStyle=none;shape=connector;rounded=0;orthogonalLoop=1;jettySize=auto;html=1;strokeColor=default;align=center;verticalAlign=middle;fontFamily=Helvetica;fontSize=11;fontColor=default;labelBackgroundColor=default;endArrow=none;endFill=0;" edge="1" parent="1" source="r2Pi9WGiZngzPLensq6e-2" target="r2Pi9WGiZngzPLensq6e-6">
          <mxGeometry relative="1" as="geometry" />
        </mxCell>
        <mxCell id="r2Pi9WGiZngzPLensq6e-2" value="3" style="ellipse;whiteSpace=wrap;html=1;" vertex="1" parent="1">
          <mxGeometry x="90" y="260" width="50" height="50" as="geometry" />
        </mxCell>
        <mxCell id="r2Pi9WGiZngzPLensq6e-8" style="rounded=0;orthogonalLoop=1;jettySize=auto;html=1;endArrow=none;endFill=0;" edge="1" parent="1" source="r2Pi9WGiZngzPLensq6e-3" target="r2Pi9WGiZngzPLensq6e-6">
          <mxGeometry relative="1" as="geometry" />
        </mxCell>
        <mxCell id="r2Pi9WGiZngzPLensq6e-14" value="ИЛИ" style="edgeLabel;html=1;align=center;verticalAlign=middle;resizable=0;points=[];fontFamily=Helvetica;fontSize=11;fontColor=default;labelBackgroundColor=default;" vertex="1" connectable="0" parent="r2Pi9WGiZngzPLensq6e-8">
          <mxGeometry x="0.8051" y="2" relative="1" as="geometry">
            <mxPoint y="-11" as="offset" />
          </mxGeometry>
        </mxCell>
        <mxCell id="r2Pi9WGiZngzPLensq6e-3" value="1" style="ellipse;whiteSpace=wrap;html=1;" vertex="1" parent="1">
          <mxGeometry x="90" y="120" width="50" height="50" as="geometry" />
        </mxCell>
        <mxCell id="r2Pi9WGiZngzPLensq6e-11" style="edgeStyle=none;shape=connector;rounded=0;orthogonalLoop=1;jettySize=auto;html=1;strokeColor=default;align=center;verticalAlign=middle;fontFamily=Helvetica;fontSize=11;fontColor=default;labelBackgroundColor=default;endArrow=none;endFill=0;" edge="1" parent="1" source="r2Pi9WGiZngzPLensq6e-4" target="r2Pi9WGiZngzPLensq6e-6">
          <mxGeometry relative="1" as="geometry" />
        </mxCell>
        <mxCell id="r2Pi9WGiZngzPLensq6e-4" value="4" style="ellipse;whiteSpace=wrap;html=1;" vertex="1" parent="1">
          <mxGeometry x="90" y="330" width="50" height="50" as="geometry" />
        </mxCell>
        <mxCell id="r2Pi9WGiZngzPLensq6e-12" style="edgeStyle=none;shape=connector;rounded=0;orthogonalLoop=1;jettySize=auto;html=1;strokeColor=default;align=center;verticalAlign=middle;fontFamily=Helvetica;fontSize=11;fontColor=default;labelBackgroundColor=default;endArrow=none;endFill=0;" edge="1" parent="1" source="r2Pi9WGiZngzPLensq6e-5" target="r2Pi9WGiZngzPLensq6e-7">
          <mxGeometry relative="1" as="geometry" />
        </mxCell>
        <mxCell id="r2Pi9WGiZngzPLensq6e-5" value="5" style="ellipse;whiteSpace=wrap;html=1;" vertex="1" parent="1">
          <mxGeometry x="90" y="400" width="50" height="50" as="geometry" />
        </mxCell>
        <mxCell id="r2Pi9WGiZngzPLensq6e-6" value="C1" style="ellipse;whiteSpace=wrap;html=1;" vertex="1" parent="1">
          <mxGeometry x="340" y="220" width="50" height="50" as="geometry" />
        </mxCell>
        <mxCell id="r2Pi9WGiZngzPLensq6e-7" value="C2" style="ellipse;whiteSpace=wrap;html=1;" vertex="1" parent="1">
          <mxGeometry x="340" y="300" width="50" height="50" as="geometry" />
        </mxCell>
        <mxCell id="r2Pi9WGiZngzPLensq6e-13" value="" style="curved=1;endArrow=none;html=1;rounded=0;strokeColor=default;align=center;verticalAlign=middle;fontFamily=Helvetica;fontSize=11;fontColor=default;labelBackgroundColor=default;endFill=0;" edge="1" parent="1">
          <mxGeometry width="50" height="50" relative="1" as="geometry">
            <mxPoint x="340" y="260" as="sourcePoint" />
            <mxPoint x="340" y="230" as="targetPoint" />
            <Array as="points">
              <mxPoint x="340" y="280" />
              <mxPoint x="290" y="230" />
            </Array>
          </mxGeometry>
        </mxCell>
      </root>
    </mxGraphModel>
  </diagram>
</mxfile>
